<svg 
 xmlns="http://www.w3.org/2000/svg"
 xmlns:xlink="http://www.w3.org/1999/xlink"
 width="17px" height="17px">
<path fill-rule="evenodd"  fill="rgb(253, 245, 239)"
 d="M11.687,17.000 L5.317,17.000 C2.385,17.000 0.008,14.623 0.008,11.692 L0.008,5.322 C0.008,2.390 2.385,0.013 5.317,0.013 L11.687,0.013 C14.618,0.013 16.995,2.390 16.995,5.322 L16.995,11.692 C16.995,14.623 14.618,17.000 11.687,17.000 ZM15.403,5.322 C15.403,3.273 13.736,1.606 11.687,1.606 L5.317,1.606 C3.268,1.606 1.601,3.273 1.601,5.322 L1.601,11.692 C1.601,13.741 3.268,15.408 5.317,15.408 L11.687,15.408 C13.736,15.408 15.403,13.741 15.403,11.692 L15.403,5.322 ZM13.067,4.508 C12.755,4.508 12.501,4.254 12.501,3.942 C12.501,3.629 12.755,3.376 13.067,3.376 C13.379,3.376 13.633,3.629 13.633,3.942 C13.633,4.254 13.379,4.508 13.067,4.508 ZM8.502,12.754 C6.157,12.754 4.255,10.852 4.255,8.507 C4.255,6.162 6.157,4.260 8.502,4.260 C10.847,4.260 12.748,6.162 12.748,8.507 C12.748,10.852 10.847,12.754 8.502,12.754 ZM8.502,5.853 C7.039,5.853 5.848,7.043 5.848,8.507 C5.848,9.970 7.039,11.161 8.502,11.161 C9.965,11.161 11.156,9.970 11.156,8.507 C11.156,7.043 9.965,5.853 8.502,5.853 Z"/>
</svg>